________________________  Visit us at _________________________
        
http://p2pdl.com  ____________________________  http://p2pdl.com


The Rolling Stones - Doom And Gloom {M4A+MP4} (1080p) x264 [VX] [P2PDL]
 
http://www.shotpix.com/images/40367136806342199620.jpg


Release Title: The Rolling Stones - Doom And Gloom (2012)


                          1080p Full HD MP4 Video
                                   +
                          128 Kbps/VBR M4A Audio

General
Complete name                  : The Rolling Stones - Doom And Gloom (1080p) x264 [VX] [P2PDL].mp4
Format                         : MPEG-4
Format profile                 : Base Media / Version 2
Codec ID                       : mp42
File size                      : 44.0 MiB
Duration                       : 4mn 9s

Video
ID                             : 1
Format                         : AVC
Bit rate mode                  : Variable
Bit rate                       : 1 350 Kbps
Width                          : 1 920 pixels
Height                         : 1 080 pixels
Display aspect ratio           : 16:9
Frame rate mode                : Constant
Frame rate                     : 25.000 fps
Color space                    : YUV
Chroma subsampling             : 4:2:0
Bit depth                      : 8 bits
Scan type                      : Progressive
Bits/(Pixel*Frame)             : 0.026
Stream size                    : 40.1 MiB (91%)
Writing library                : x264 core 128

Audio
ID                             : 2
Format                         : AAC
Bit rate mode                  : Variable
Bit rate                       : 128 Kbps
Channel(s)                     : 2 channels
Channel positions              : Front: L R
Sampling rate                  : 48.0 KHz
Compression mode               : Lossy
Stream size                    : 3.79 MiB (9%)

Subtitles                      : No

Screens:
 
http://www.shotpix.com/images/16846710846231837161.jpg 
http://www.shotpix.com/images/79094615638844180893.jpg

Thumbs:
 
http://www.shotpix.com/images/13655527981437924935.jpg

------------------------------------------------------------------------

Notes:

* Recommended to use latest version VLC Media Player.
* Install shark007 codecs in case of any kind of problem in playback (For non-VLC Media Player users).
* Alternatively, install Core AVC codecs, the fastest decoder that there is coupled with Community Center Codec Pack and play on Windows Media Player Classic.

Greets to: VYTO, a2zRG, stumpie1971, Sheychi, staff members at ExtraTorrent, TPB,KAT, 1337x, PublicHD, Ahashare, TorrentMafia, Limetorrents, BTScene, P2PDL, and all others

Encoder Notes: Looking For Early Access To Anything You Can Provide DVDScr, R5, DVDRips, BluRay, Direct Audio, Early Music
Releases, Seedboxes, Links, Dedicated Servers anything u can provide, Advance / Promo CDs/DVDs. If You Got anything to
offer contact me at "prg@hush.com"

Facebook Fan Page: www . facebook . com / p2pdl